# xmcd
#
# Track frame offsets:
#	150
#	15386
#	31976
#	51819
#	67298
#	82182
#	96648
#	119386
#	134782
#	155305
#	169433
#	182894
#
# Disc length: 2649 seconds
#
# Revision: 1
# Processed by: cddbd v1.5.2PL0 Copyright (c) Steve Scherf et al.
# Submitted via: audiograbber 1.83.01
#
DISCID=b20a570c
DTITLE=Mark Stephen Jones - Self Made Man
DYEAR=2010
DGENRE=Country
TTITLE0=Screwdriver and a Vicodin
TTITLE1=Addicted
TTITLE2=A Fool's Hill
TTITLE3=Self Made Man
TTITLE4=Tomorrow Morning
TTITLE5=Mirrors Behind Bars
TTITLE6=Red White and Pinkslip Blues
TTITLE7=Cat and Mouse
TTITLE8=Things Change
TTITLE9=I had a Hundred Dollars
TTITLE10=Swiss Family Robinson
TTITLE11=Life Is Beautiful
EXTD=
EXTT0=
EXTT1=
EXTT2=
EXTT3=
EXTT4=
EXTT5=
EXTT6=
EXTT7=
EXTT8=
EXTT9=
EXTT10=
EXTT11=
PLAYORDER=
